<mxfile host="app.diagrams.net" modified="2022-03-04T14:42:03.298Z" agent="5.0 (Windows)" etag="UpRkM5twOv0hEsoLOhz1" version="16.6.6" type="github" pages="5">
  <diagram id="2r_VohU2_wrSIkmMMugK" name="Caso de uso Ingreso al sistema">
    <mxGraphModel dx="1422" dy="752" grid="1" gridSize="10" guides="1" tooltips="1" connect="1" arrows="1" fold="1" page="1" pageScale="1" pageWidth="827" pageHeight="1169" math="0" shadow="0">
      <root>
        <mxCell id="0" />
        <mxCell id="1" parent="0" />
        <mxCell id="IsbKVrzLAY1zWAiUxANt-4" style="rounded=0;orthogonalLoop=1;jettySize=auto;html=1;endArrow=none;endFill=0;" edge="1" parent="1" source="IsbKVrzLAY1zWAiUxANt-1" target="IsbKVrzLAY1zWAiUxANt-3">
          <mxGeometry relative="1" as="geometry" />
        </mxCell>
        <mxCell id="IsbKVrzLAY1zWAiUxANt-1" value="Vendedor" style="shape=umlActor;verticalLabelPosition=bottom;verticalAlign=top;html=1;" vertex="1" parent="1">
          <mxGeometry x="80" y="300" width="30" height="60" as="geometry" />
        </mxCell>
        <mxCell id="IsbKVrzLAY1zWAiUxANt-2" value="SICV" style="shape=umlFrame;whiteSpace=wrap;html=1;" vertex="1" parent="1">
          <mxGeometry x="179" y="145" width="481" height="375" as="geometry" />
        </mxCell>
        <mxCell id="IsbKVrzLAY1zWAiUxANt-3" value="Ingreso al sitema" style="ellipse;whiteSpace=wrap;html=1;" vertex="1" parent="1">
          <mxGeometry x="349.5" y="240" width="140" height="70" as="geometry" />
        </mxCell>
        <mxCell id="IsbKVrzLAY1zWAiUxANt-7" style="edgeStyle=none;rounded=0;orthogonalLoop=1;jettySize=auto;html=1;endArrow=classic;endFill=1;dashed=1;" edge="1" parent="1" source="IsbKVrzLAY1zWAiUxANt-5" target="IsbKVrzLAY1zWAiUxANt-3">
          <mxGeometry relative="1" as="geometry" />
        </mxCell>
        <mxCell id="IsbKVrzLAY1zWAiUxANt-9" value="&amp;lt;extend&amp;gt;" style="edgeLabel;html=1;align=center;verticalAlign=middle;resizable=0;points=[];" vertex="1" connectable="0" parent="IsbKVrzLAY1zWAiUxANt-7">
          <mxGeometry x="-0.3721" y="1" relative="1" as="geometry">
            <mxPoint as="offset" />
          </mxGeometry>
        </mxCell>
        <mxCell id="IsbKVrzLAY1zWAiUxANt-5" value="Registrar Vehiculo" style="ellipse;whiteSpace=wrap;html=1;" vertex="1" parent="1">
          <mxGeometry x="250" y="380" width="140" height="70" as="geometry" />
        </mxCell>
        <mxCell id="IsbKVrzLAY1zWAiUxANt-8" style="edgeStyle=none;rounded=0;orthogonalLoop=1;jettySize=auto;html=1;endArrow=classic;endFill=1;dashed=1;startArrow=none;startFill=0;" edge="1" parent="1" source="IsbKVrzLAY1zWAiUxANt-6" target="IsbKVrzLAY1zWAiUxANt-3">
          <mxGeometry relative="1" as="geometry" />
        </mxCell>
        <mxCell id="IsbKVrzLAY1zWAiUxANt-10" value="&amp;lt;extends&amp;gt;" style="edgeLabel;html=1;align=center;verticalAlign=middle;resizable=0;points=[];" vertex="1" connectable="0" parent="IsbKVrzLAY1zWAiUxANt-8">
          <mxGeometry x="-0.3309" relative="1" as="geometry">
            <mxPoint as="offset" />
          </mxGeometry>
        </mxCell>
        <mxCell id="IsbKVrzLAY1zWAiUxANt-6" value="Editar Perfil" style="ellipse;whiteSpace=wrap;html=1;" vertex="1" parent="1">
          <mxGeometry x="460" y="390" width="140" height="70" as="geometry" />
        </mxCell>
        <mxCell id="hrtRU9ZcBNGfY4Alldk1-1" value="Diagrama Caso de uso ingreso al sistema" style="text;strokeColor=none;fillColor=none;html=1;fontSize=24;fontStyle=1;verticalAlign=middle;align=center;" vertex="1" parent="1">
          <mxGeometry x="179" y="70" width="506" height="40" as="geometry" />
        </mxCell>
      </root>
    </mxGraphModel>
  </diagram>
  <diagram id="BbDDv75tYHa_LXaL0L6z" name="Caso de uso consultar vehiculo">
    <mxGraphModel dx="1422" dy="752" grid="1" gridSize="10" guides="1" tooltips="1" connect="1" arrows="1" fold="1" page="1" pageScale="1" pageWidth="827" pageHeight="1169" math="0" shadow="0">
      <root>
        <mxCell id="6iV2gQKGcsVNJlw0BaES-0" />
        <mxCell id="6iV2gQKGcsVNJlw0BaES-1" parent="6iV2gQKGcsVNJlw0BaES-0" />
        <mxCell id="py2xR3MUC2B1_8jr3Scz-2" style="edgeStyle=none;rounded=0;orthogonalLoop=1;jettySize=auto;html=1;startArrow=none;startFill=0;endArrow=none;endFill=0;" edge="1" parent="6iV2gQKGcsVNJlw0BaES-1" source="6iV2gQKGcsVNJlw0BaES-2" target="QquSr7EaG3c1re2R-s63-1">
          <mxGeometry relative="1" as="geometry" />
        </mxCell>
        <mxCell id="6iV2gQKGcsVNJlw0BaES-2" value="Comprador" style="shape=umlActor;verticalLabelPosition=bottom;verticalAlign=top;html=1;" vertex="1" parent="6iV2gQKGcsVNJlw0BaES-1">
          <mxGeometry x="90" y="310" width="30" height="60" as="geometry" />
        </mxCell>
        <mxCell id="6iV2gQKGcsVNJlw0BaES-3" value="SICV" style="shape=umlFrame;whiteSpace=wrap;html=1;" vertex="1" parent="6iV2gQKGcsVNJlw0BaES-1">
          <mxGeometry x="164" y="170" width="500" height="370" as="geometry" />
        </mxCell>
        <mxCell id="QquSr7EaG3c1re2R-s63-1" value="Consultar VehÃ­culo" style="ellipse;whiteSpace=wrap;html=1;" vertex="1" parent="6iV2gQKGcsVNJlw0BaES-1">
          <mxGeometry x="344" y="270" width="140" height="70" as="geometry" />
        </mxCell>
        <mxCell id="py2xR3MUC2B1_8jr3Scz-4" style="edgeStyle=none;rounded=0;orthogonalLoop=1;jettySize=auto;html=1;dashed=1;startArrow=none;startFill=0;endArrow=classic;endFill=1;" edge="1" parent="6iV2gQKGcsVNJlw0BaES-1" source="py2xR3MUC2B1_8jr3Scz-0" target="QquSr7EaG3c1re2R-s63-1">
          <mxGeometry relative="1" as="geometry" />
        </mxCell>
        <mxCell id="py2xR3MUC2B1_8jr3Scz-6" value="&amp;lt;extend&amp;gt;" style="edgeLabel;html=1;align=center;verticalAlign=middle;resizable=0;points=[];" vertex="1" connectable="0" parent="py2xR3MUC2B1_8jr3Scz-4">
          <mxGeometry x="-0.4248" relative="1" as="geometry">
            <mxPoint as="offset" />
          </mxGeometry>
        </mxCell>
        <mxCell id="py2xR3MUC2B1_8jr3Scz-0" value="Consultar Categoria" style="ellipse;whiteSpace=wrap;html=1;" vertex="1" parent="6iV2gQKGcsVNJlw0BaES-1">
          <mxGeometry x="240" y="420" width="140" height="70" as="geometry" />
        </mxCell>
        <mxCell id="py2xR3MUC2B1_8jr3Scz-5" style="edgeStyle=none;rounded=0;orthogonalLoop=1;jettySize=auto;html=1;dashed=1;startArrow=none;startFill=0;endArrow=classic;endFill=1;" edge="1" parent="6iV2gQKGcsVNJlw0BaES-1" source="py2xR3MUC2B1_8jr3Scz-1" target="QquSr7EaG3c1re2R-s63-1">
          <mxGeometry relative="1" as="geometry" />
        </mxCell>
        <mxCell id="py2xR3MUC2B1_8jr3Scz-7" value="&amp;lt;extend&amp;gt;" style="edgeLabel;html=1;align=center;verticalAlign=middle;resizable=0;points=[];" vertex="1" connectable="0" parent="py2xR3MUC2B1_8jr3Scz-5">
          <mxGeometry x="-0.2374" relative="1" as="geometry">
            <mxPoint as="offset" />
          </mxGeometry>
        </mxCell>
        <mxCell id="py2xR3MUC2B1_8jr3Scz-1" value="Consultar Precio" style="ellipse;whiteSpace=wrap;html=1;" vertex="1" parent="6iV2gQKGcsVNJlw0BaES-1">
          <mxGeometry x="450" y="420" width="140" height="70" as="geometry" />
        </mxCell>
        <mxCell id="URlp4a1a6F89m8Mxqx-y-0" value="Diagrama Caso de uso Consulta Vehiculo" style="text;strokeColor=none;fillColor=none;html=1;fontSize=24;fontStyle=1;verticalAlign=middle;align=center;" vertex="1" parent="6iV2gQKGcsVNJlw0BaES-1">
          <mxGeometry x="164" y="100" width="506" height="40" as="geometry" />
        </mxCell>
      </root>
    </mxGraphModel>
  </diagram>
  <diagram id="64RJPVXA8O9sf4RG52Rx" name="Diagrama de estado Vehiculo">
    <mxGraphModel dx="2249" dy="752" grid="1" gridSize="10" guides="1" tooltips="1" connect="1" arrows="1" fold="1" page="1" pageScale="1" pageWidth="827" pageHeight="1169" math="0" shadow="0">
      <root>
        <mxCell id="xswd5ZVKZIJ1PRvP2qzF-0" />
        <mxCell id="xswd5ZVKZIJ1PRvP2qzF-1" parent="xswd5ZVKZIJ1PRvP2qzF-0" />
        <mxCell id="8lzR3zlxzNffQdhEEC-L-5" style="edgeStyle=none;rounded=0;orthogonalLoop=1;jettySize=auto;html=1;startArrow=none;startFill=0;endArrow=none;endFill=0;" edge="1" parent="xswd5ZVKZIJ1PRvP2qzF-1" source="8lzR3zlxzNffQdhEEC-L-0" target="8lzR3zlxzNffQdhEEC-L-1">
          <mxGeometry relative="1" as="geometry" />
        </mxCell>
        <mxCell id="8lzR3zlxzNffQdhEEC-L-0" value="" style="strokeWidth=2;html=1;shape=mxgraph.flowchart.start_2;whiteSpace=wrap;" vertex="1" parent="xswd5ZVKZIJ1PRvP2qzF-1">
          <mxGeometry x="-120" y="440" width="40" height="40" as="geometry" />
        </mxCell>
        <mxCell id="8lzR3zlxzNffQdhEEC-L-6" style="edgeStyle=none;rounded=0;orthogonalLoop=1;jettySize=auto;html=1;startArrow=none;startFill=0;endArrow=none;endFill=0;" edge="1" parent="xswd5ZVKZIJ1PRvP2qzF-1" source="8lzR3zlxzNffQdhEEC-L-1" target="8lzR3zlxzNffQdhEEC-L-2">
          <mxGeometry relative="1" as="geometry" />
        </mxCell>
        <mxCell id="8lzR3zlxzNffQdhEEC-L-1" value="No registrado" style="shape=rect;rounded=1;html=1;whiteSpace=wrap;align=center;fillColor=#dae8fc;strokeColor=#6c8ebf;" vertex="1" parent="xswd5ZVKZIJ1PRvP2qzF-1">
          <mxGeometry y="435" width="120" height="50" as="geometry" />
        </mxCell>
        <mxCell id="8lzR3zlxzNffQdhEEC-L-7" style="edgeStyle=none;rounded=0;orthogonalLoop=1;jettySize=auto;html=1;startArrow=none;startFill=0;endArrow=none;endFill=0;" edge="1" parent="xswd5ZVKZIJ1PRvP2qzF-1" source="8lzR3zlxzNffQdhEEC-L-2" target="8lzR3zlxzNffQdhEEC-L-3">
          <mxGeometry relative="1" as="geometry" />
        </mxCell>
        <mxCell id="8lzR3zlxzNffQdhEEC-L-2" value="registrado" style="shape=rect;rounded=1;html=1;whiteSpace=wrap;align=center;fillColor=#dae8fc;strokeColor=#6c8ebf;" vertex="1" parent="xswd5ZVKZIJ1PRvP2qzF-1">
          <mxGeometry x="250" y="435" width="120" height="50" as="geometry" />
        </mxCell>
        <mxCell id="8lzR3zlxzNffQdhEEC-L-8" style="edgeStyle=none;rounded=0;orthogonalLoop=1;jettySize=auto;html=1;startArrow=none;startFill=0;endArrow=none;endFill=0;" edge="1" parent="xswd5ZVKZIJ1PRvP2qzF-1" source="8lzR3zlxzNffQdhEEC-L-3" target="8lzR3zlxzNffQdhEEC-L-4">
          <mxGeometry relative="1" as="geometry" />
        </mxCell>
        <mxCell id="8lzR3zlxzNffQdhEEC-L-3" value="vendido" style="shape=rect;rounded=1;html=1;whiteSpace=wrap;align=center;fillColor=#dae8fc;strokeColor=#6c8ebf;" vertex="1" parent="xswd5ZVKZIJ1PRvP2qzF-1">
          <mxGeometry x="510" y="435" width="120" height="50" as="geometry" />
        </mxCell>
        <mxCell id="8lzR3zlxzNffQdhEEC-L-4" value="" style="ellipse;html=1;shape=endState;fillColor=#000000;strokeColor=#000000;" vertex="1" parent="xswd5ZVKZIJ1PRvP2qzF-1">
          <mxGeometry x="700" y="440" width="43" height="40" as="geometry" />
        </mxCell>
        <mxCell id="8lzR3zlxzNffQdhEEC-L-9" value="registrarAuto()" style="text;html=1;align=center;verticalAlign=middle;resizable=0;points=[];autosize=1;strokeColor=none;fillColor=none;" vertex="1" parent="xswd5ZVKZIJ1PRvP2qzF-1">
          <mxGeometry x="140" y="435" width="90" height="20" as="geometry" />
        </mxCell>
        <mxCell id="8lzR3zlxzNffQdhEEC-L-10" value="registrarVentaAuto()" style="text;html=1;align=center;verticalAlign=middle;resizable=0;points=[];autosize=1;strokeColor=none;fillColor=none;" vertex="1" parent="xswd5ZVKZIJ1PRvP2qzF-1">
          <mxGeometry x="375" y="435" width="120" height="20" as="geometry" />
        </mxCell>
        <mxCell id="8lzR3zlxzNffQdhEEC-L-13" value="Diagrama de estado: VehÃ­culo" style="text;strokeColor=none;fillColor=none;html=1;fontSize=24;fontStyle=1;verticalAlign=middle;align=center;" vertex="1" parent="xswd5ZVKZIJ1PRvP2qzF-1">
          <mxGeometry x="105" y="340" width="410" height="40" as="geometry" />
        </mxCell>
      </root>
    </mxGraphModel>
  </diagram>
  <diagram id="GuSX10thduRVi5n7att_" name="Diagrama de estado: Vendedor">
    <mxGraphModel dx="2249" dy="752" grid="1" gridSize="10" guides="1" tooltips="1" connect="1" arrows="1" fold="1" page="1" pageScale="1" pageWidth="827" pageHeight="1169" math="0" shadow="0">
      <root>
        <mxCell id="8k2iRk-zju7mYM7hd7b4-0" />
        <mxCell id="8k2iRk-zju7mYM7hd7b4-1" parent="8k2iRk-zju7mYM7hd7b4-0" />
        <mxCell id="8k2iRk-zju7mYM7hd7b4-2" value="Diagrama de estado: vendedor" style="text;strokeColor=none;fillColor=none;html=1;fontSize=24;fontStyle=1;verticalAlign=middle;align=center;" vertex="1" parent="8k2iRk-zju7mYM7hd7b4-1">
          <mxGeometry x="224" y="230" width="380" height="40" as="geometry" />
        </mxCell>
        <mxCell id="AqsIsjGvIVx5snZjpuma-5" style="edgeStyle=none;rounded=0;orthogonalLoop=1;jettySize=auto;html=1;startArrow=none;startFill=0;endArrow=none;endFill=0;" edge="1" parent="8k2iRk-zju7mYM7hd7b4-1" source="8k2iRk-zju7mYM7hd7b4-3" target="AqsIsjGvIVx5snZjpuma-0">
          <mxGeometry relative="1" as="geometry" />
        </mxCell>
        <mxCell id="8k2iRk-zju7mYM7hd7b4-3" value="" style="ellipse;whiteSpace=wrap;html=1;aspect=fixed;strokeColor=#000000;" vertex="1" parent="8k2iRk-zju7mYM7hd7b4-1">
          <mxGeometry x="-190" y="360" width="40" height="40" as="geometry" />
        </mxCell>
        <mxCell id="9_Z9yOMUKCV6Zl2eVZmf-0" value="" style="ellipse;html=1;shape=endState;fillColor=#000000;strokeColor=#000000;" vertex="1" parent="8k2iRk-zju7mYM7hd7b4-1">
          <mxGeometry x="1050" y="360" width="43" height="40" as="geometry" />
        </mxCell>
        <mxCell id="AqsIsjGvIVx5snZjpuma-6" style="edgeStyle=none;rounded=0;orthogonalLoop=1;jettySize=auto;html=1;startArrow=none;startFill=0;endArrow=none;endFill=0;" edge="1" parent="8k2iRk-zju7mYM7hd7b4-1" source="AqsIsjGvIVx5snZjpuma-0" target="AqsIsjGvIVx5snZjpuma-1">
          <mxGeometry relative="1" as="geometry" />
        </mxCell>
        <mxCell id="AqsIsjGvIVx5snZjpuma-0" value="solicitado" style="shape=rect;rounded=1;html=1;whiteSpace=wrap;align=center;fillColor=#dae8fc;strokeColor=#6c8ebf;" vertex="1" parent="8k2iRk-zju7mYM7hd7b4-1">
          <mxGeometry y="355" width="120" height="50" as="geometry" />
        </mxCell>
        <mxCell id="AqsIsjGvIVx5snZjpuma-7" style="edgeStyle=none;rounded=0;orthogonalLoop=1;jettySize=auto;html=1;startArrow=none;startFill=0;endArrow=none;endFill=0;" edge="1" parent="8k2iRk-zju7mYM7hd7b4-1" source="AqsIsjGvIVx5snZjpuma-1" target="AqsIsjGvIVx5snZjpuma-2">
          <mxGeometry relative="1" as="geometry" />
        </mxCell>
        <mxCell id="AqsIsjGvIVx5snZjpuma-1" value="Creado" style="shape=rect;rounded=1;html=1;whiteSpace=wrap;align=center;fillColor=#dae8fc;strokeColor=#6c8ebf;" vertex="1" parent="8k2iRk-zju7mYM7hd7b4-1">
          <mxGeometry x="294" y="355" width="120" height="50" as="geometry" />
        </mxCell>
        <mxCell id="AqsIsjGvIVx5snZjpuma-8" style="edgeStyle=none;rounded=0;orthogonalLoop=1;jettySize=auto;html=1;startArrow=none;startFill=0;endArrow=none;endFill=0;" edge="1" parent="8k2iRk-zju7mYM7hd7b4-1" source="AqsIsjGvIVx5snZjpuma-2" target="AqsIsjGvIVx5snZjpuma-3">
          <mxGeometry relative="1" as="geometry" />
        </mxCell>
        <mxCell id="AqsIsjGvIVx5snZjpuma-2" value="activo" style="shape=rect;rounded=1;html=1;whiteSpace=wrap;align=center;fillColor=#dae8fc;strokeColor=#6c8ebf;" vertex="1" parent="8k2iRk-zju7mYM7hd7b4-1">
          <mxGeometry x="570" y="355" width="120" height="50" as="geometry" />
        </mxCell>
        <mxCell id="AqsIsjGvIVx5snZjpuma-9" style="edgeStyle=none;rounded=0;orthogonalLoop=1;jettySize=auto;html=1;startArrow=none;startFill=0;endArrow=none;endFill=0;" edge="1" parent="8k2iRk-zju7mYM7hd7b4-1" source="AqsIsjGvIVx5snZjpuma-3" target="9_Z9yOMUKCV6Zl2eVZmf-0">
          <mxGeometry relative="1" as="geometry" />
        </mxCell>
        <mxCell id="AqsIsjGvIVx5snZjpuma-14" style="edgeStyle=orthogonalEdgeStyle;rounded=0;orthogonalLoop=1;jettySize=auto;html=1;entryX=0.5;entryY=1;entryDx=0;entryDy=0;startArrow=none;startFill=0;endArrow=none;endFill=0;" edge="1" parent="8k2iRk-zju7mYM7hd7b4-1" source="AqsIsjGvIVx5snZjpuma-3" target="AqsIsjGvIVx5snZjpuma-2">
          <mxGeometry relative="1" as="geometry">
            <Array as="points">
              <mxPoint x="887" y="460" />
              <mxPoint x="630" y="460" />
            </Array>
          </mxGeometry>
        </mxCell>
        <mxCell id="AqsIsjGvIVx5snZjpuma-3" value="inactivo" style="shape=rect;rounded=1;html=1;whiteSpace=wrap;align=center;fillColor=#dae8fc;strokeColor=#6c8ebf;" vertex="1" parent="8k2iRk-zju7mYM7hd7b4-1">
          <mxGeometry x="827" y="355" width="120" height="50" as="geometry" />
        </mxCell>
        <mxCell id="AqsIsjGvIVx5snZjpuma-10" value="registrarVendedor()" style="text;html=1;align=center;verticalAlign=middle;resizable=0;points=[];autosize=1;strokeColor=none;fillColor=none;" vertex="1" parent="8k2iRk-zju7mYM7hd7b4-1">
          <mxGeometry x="140" y="350" width="120" height="20" as="geometry" />
        </mxCell>
        <mxCell id="AqsIsjGvIVx5snZjpuma-11" value="activarVendedor()" style="text;html=1;align=center;verticalAlign=middle;resizable=0;points=[];autosize=1;strokeColor=none;fillColor=none;" vertex="1" parent="8k2iRk-zju7mYM7hd7b4-1">
          <mxGeometry x="440" y="350" width="110" height="20" as="geometry" />
        </mxCell>
        <mxCell id="AqsIsjGvIVx5snZjpuma-12" value="inactivarVendedor()" style="text;html=1;align=center;verticalAlign=middle;resizable=0;points=[];autosize=1;strokeColor=none;fillColor=none;" vertex="1" parent="8k2iRk-zju7mYM7hd7b4-1">
          <mxGeometry x="700" y="355" width="120" height="20" as="geometry" />
        </mxCell>
        <mxCell id="AqsIsjGvIVx5snZjpuma-15" value="modificarVendedor()" style="text;html=1;align=center;verticalAlign=middle;resizable=0;points=[];autosize=1;strokeColor=none;fillColor=none;" vertex="1" parent="8k2iRk-zju7mYM7hd7b4-1">
          <mxGeometry x="690" y="440" width="130" height="20" as="geometry" />
        </mxCell>
      </root>
    </mxGraphModel>
  </diagram>
  <diagram id="JbkrAfMQDxfMiMu51IrS" name="Modelo entidad relacion">
    <mxGraphModel dx="3197" dy="2422" grid="1" gridSize="10" guides="1" tooltips="1" connect="1" arrows="1" fold="1" page="1" pageScale="1" pageWidth="827" pageHeight="1169" math="0" shadow="0">
      <root>
        <mxCell id="0QS4IYa8kzxrMIZf37TH-0" />
        <mxCell id="0QS4IYa8kzxrMIZf37TH-1" parent="0QS4IYa8kzxrMIZf37TH-0" />
        <mxCell id="0QS4IYa8kzxrMIZf37TH-2" style="edgeStyle=orthogonalEdgeStyle;rounded=0;orthogonalLoop=1;jettySize=auto;html=1;endArrow=none;endFill=0;" edge="1" parent="0QS4IYa8kzxrMIZf37TH-1" source="0QS4IYa8kzxrMIZf37TH-4" target="0QS4IYa8kzxrMIZf37TH-20">
          <mxGeometry relative="1" as="geometry" />
        </mxCell>
        <mxCell id="0QS4IYa8kzxrMIZf37TH-3" style="edgeStyle=orthogonalEdgeStyle;rounded=0;orthogonalLoop=1;jettySize=auto;html=1;endArrow=none;endFill=0;" edge="1" parent="0QS4IYa8kzxrMIZf37TH-1" source="0QS4IYa8kzxrMIZf37TH-4" target="0QS4IYa8kzxrMIZf37TH-22">
          <mxGeometry relative="1" as="geometry" />
        </mxCell>
        <mxCell id="0QS4IYa8kzxrMIZf37TH-4" value="Usuario" style="whiteSpace=wrap;html=1;align=center;" vertex="1" parent="0QS4IYa8kzxrMIZf37TH-1">
          <mxGeometry x="360" y="280" width="100" height="40" as="geometry" />
        </mxCell>
        <mxCell id="0QS4IYa8kzxrMIZf37TH-5" value="Rol" style="whiteSpace=wrap;html=1;align=center;" vertex="1" parent="0QS4IYa8kzxrMIZf37TH-1">
          <mxGeometry x="-130" y="280" width="100" height="40" as="geometry" />
        </mxCell>
        <mxCell id="0QS4IYa8kzxrMIZf37TH-6" style="edgeStyle=none;rounded=0;orthogonalLoop=1;jettySize=auto;html=1;fontSize=12;endArrow=none;endFill=0;" edge="1" parent="0QS4IYa8kzxrMIZf37TH-1" source="0QS4IYa8kzxrMIZf37TH-18" target="0QS4IYa8kzxrMIZf37TH-51">
          <mxGeometry relative="1" as="geometry" />
        </mxCell>
        <mxCell id="0QS4IYa8kzxrMIZf37TH-7" style="edgeStyle=none;rounded=0;orthogonalLoop=1;jettySize=auto;html=1;fontSize=12;endArrow=none;endFill=0;" edge="1" parent="0QS4IYa8kzxrMIZf37TH-1" source="0QS4IYa8kzxrMIZf37TH-18" target="0QS4IYa8kzxrMIZf37TH-46">
          <mxGeometry relative="1" as="geometry" />
        </mxCell>
        <mxCell id="0QS4IYa8kzxrMIZf37TH-8" style="edgeStyle=none;rounded=0;orthogonalLoop=1;jettySize=auto;html=1;fontSize=12;endArrow=none;endFill=0;" edge="1" parent="0QS4IYa8kzxrMIZf37TH-1" source="0QS4IYa8kzxrMIZf37TH-18" target="0QS4IYa8kzxrMIZf37TH-90">
          <mxGeometry relative="1" as="geometry">
            <mxPoint x="1351.1098792961188" y="274.1905817746185" as="targetPoint" />
          </mxGeometry>
        </mxCell>
        <mxCell id="0QS4IYa8kzxrMIZf37TH-9" style="edgeStyle=none;rounded=0;orthogonalLoop=1;jettySize=auto;html=1;fontSize=12;endArrow=none;endFill=0;" edge="1" parent="0QS4IYa8kzxrMIZf37TH-1" source="0QS4IYa8kzxrMIZf37TH-18" target="0QS4IYa8kzxrMIZf37TH-61">
          <mxGeometry relative="1" as="geometry" />
        </mxCell>
        <mxCell id="0QS4IYa8kzxrMIZf37TH-10" style="edgeStyle=none;rounded=0;orthogonalLoop=1;jettySize=auto;html=1;fontSize=12;endArrow=none;endFill=0;" edge="1" parent="0QS4IYa8kzxrMIZf37TH-1" source="0QS4IYa8kzxrMIZf37TH-18" target="0QS4IYa8kzxrMIZf37TH-39">
          <mxGeometry relative="1" as="geometry" />
        </mxCell>
        <mxCell id="0QS4IYa8kzxrMIZf37TH-11" style="edgeStyle=none;rounded=0;orthogonalLoop=1;jettySize=auto;html=1;fontSize=12;endArrow=none;endFill=0;" edge="1" parent="0QS4IYa8kzxrMIZf37TH-1" source="0QS4IYa8kzxrMIZf37TH-18" target="0QS4IYa8kzxrMIZf37TH-40">
          <mxGeometry relative="1" as="geometry" />
        </mxCell>
        <mxCell id="0QS4IYa8kzxrMIZf37TH-12" style="edgeStyle=none;rounded=0;orthogonalLoop=1;jettySize=auto;html=1;fontSize=12;endArrow=none;endFill=0;" edge="1" parent="0QS4IYa8kzxrMIZf37TH-1" source="0QS4IYa8kzxrMIZf37TH-18" target="0QS4IYa8kzxrMIZf37TH-49">
          <mxGeometry relative="1" as="geometry" />
        </mxCell>
        <mxCell id="0QS4IYa8kzxrMIZf37TH-13" style="edgeStyle=none;rounded=0;orthogonalLoop=1;jettySize=auto;html=1;fontSize=12;endArrow=none;endFill=0;" edge="1" parent="0QS4IYa8kzxrMIZf37TH-1" source="0QS4IYa8kzxrMIZf37TH-18" target="0QS4IYa8kzxrMIZf37TH-55">
          <mxGeometry relative="1" as="geometry" />
        </mxCell>
        <mxCell id="0QS4IYa8kzxrMIZf37TH-14" style="edgeStyle=none;rounded=0;orthogonalLoop=1;jettySize=auto;html=1;fontSize=12;endArrow=none;endFill=0;" edge="1" parent="0QS4IYa8kzxrMIZf37TH-1" source="0QS4IYa8kzxrMIZf37TH-18" target="0QS4IYa8kzxrMIZf37TH-52">
          <mxGeometry relative="1" as="geometry" />
        </mxCell>
        <mxCell id="0QS4IYa8kzxrMIZf37TH-15" style="edgeStyle=none;rounded=0;orthogonalLoop=1;jettySize=auto;html=1;fontSize=12;endArrow=none;endFill=0;" edge="1" parent="0QS4IYa8kzxrMIZf37TH-1" source="0QS4IYa8kzxrMIZf37TH-18" target="0QS4IYa8kzxrMIZf37TH-53">
          <mxGeometry relative="1" as="geometry" />
        </mxCell>
        <mxCell id="0QS4IYa8kzxrMIZf37TH-16" style="edgeStyle=none;rounded=0;orthogonalLoop=1;jettySize=auto;html=1;fontSize=12;endArrow=none;endFill=0;" edge="1" parent="0QS4IYa8kzxrMIZf37TH-1" source="0QS4IYa8kzxrMIZf37TH-18" target="0QS4IYa8kzxrMIZf37TH-54">
          <mxGeometry relative="1" as="geometry" />
        </mxCell>
        <mxCell id="0QS4IYa8kzxrMIZf37TH-17" style="edgeStyle=none;rounded=0;orthogonalLoop=1;jettySize=auto;html=1;fontSize=12;endArrow=none;endFill=0;" edge="1" parent="0QS4IYa8kzxrMIZf37TH-1" source="0QS4IYa8kzxrMIZf37TH-18" target="0QS4IYa8kzxrMIZf37TH-70">
          <mxGeometry relative="1" as="geometry" />
        </mxCell>
        <mxCell id="0QS4IYa8kzxrMIZf37TH-18" value="Consultante" style="whiteSpace=wrap;html=1;align=center;" vertex="1" parent="0QS4IYa8kzxrMIZf37TH-1">
          <mxGeometry x="1000" y="280" width="100" height="40" as="geometry" />
        </mxCell>
        <mxCell id="0QS4IYa8kzxrMIZf37TH-19" style="edgeStyle=orthogonalEdgeStyle;rounded=0;orthogonalLoop=1;jettySize=auto;html=1;entryX=1;entryY=0.5;entryDx=0;entryDy=0;endArrow=none;endFill=0;" edge="1" parent="0QS4IYa8kzxrMIZf37TH-1" source="0QS4IYa8kzxrMIZf37TH-20" target="0QS4IYa8kzxrMIZf37TH-5">
          <mxGeometry relative="1" as="geometry" />
        </mxCell>
        <mxCell id="0QS4IYa8kzxrMIZf37TH-20" value="Tiene" style="shape=rhombus;perimeter=rhombusPerimeter;whiteSpace=wrap;html=1;align=center;" vertex="1" parent="0QS4IYa8kzxrMIZf37TH-1">
          <mxGeometry x="90" y="270" width="120" height="60" as="geometry" />
        </mxCell>
        <mxCell id="0QS4IYa8kzxrMIZf37TH-21" style="edgeStyle=orthogonalEdgeStyle;rounded=0;orthogonalLoop=1;jettySize=auto;html=1;endArrow=none;endFill=0;" edge="1" parent="0QS4IYa8kzxrMIZf37TH-1" source="0QS4IYa8kzxrMIZf37TH-22" target="0QS4IYa8kzxrMIZf37TH-18">
          <mxGeometry relative="1" as="geometry" />
        </mxCell>
        <mxCell id="0QS4IYa8kzxrMIZf37TH-22" value="Gestiona" style="shape=rhombus;perimeter=rhombusPerimeter;whiteSpace=wrap;html=1;align=center;" vertex="1" parent="0QS4IYa8kzxrMIZf37TH-1">
          <mxGeometry x="670" y="270" width="120" height="60" as="geometry" />
        </mxCell>
        <mxCell id="0QS4IYa8kzxrMIZf37TH-23" style="rounded=0;orthogonalLoop=1;jettySize=auto;html=1;endArrow=none;endFill=0;" edge="1" parent="0QS4IYa8kzxrMIZf37TH-1" source="0QS4IYa8kzxrMIZf37TH-24" target="0QS4IYa8kzxrMIZf37TH-5">
          <mxGeometry relative="1" as="geometry" />
        </mxCell>
        <mxCell id="0QS4IYa8kzxrMIZf37TH-24" value="tipo" style="ellipse;whiteSpace=wrap;html=1;align=center;" vertex="1" parent="0QS4IYa8kzxrMIZf37TH-1">
          <mxGeometry x="-280" y="220" width="100" height="40" as="geometry" />
        </mxCell>
        <mxCell id="0QS4IYa8kzxrMIZf37TH-25" style="edgeStyle=none;rounded=0;orthogonalLoop=1;jettySize=auto;html=1;endArrow=none;endFill=0;" edge="1" parent="0QS4IYa8kzxrMIZf37TH-1" source="0QS4IYa8kzxrMIZf37TH-26" target="0QS4IYa8kzxrMIZf37TH-5">
          <mxGeometry relative="1" as="geometry" />
        </mxCell>
        <mxCell id="0QS4IYa8kzxrMIZf37TH-26" value="id" style="ellipse;whiteSpace=wrap;html=1;align=center;fontStyle=4;" vertex="1" parent="0QS4IYa8kzxrMIZf37TH-1">
          <mxGeometry x="-280" y="350" width="100" height="40" as="geometry" />
        </mxCell>
        <mxCell id="0QS4IYa8kzxrMIZf37TH-27" style="edgeStyle=none;rounded=0;orthogonalLoop=1;jettySize=auto;html=1;endArrow=none;endFill=0;" edge="1" parent="0QS4IYa8kzxrMIZf37TH-1" source="0QS4IYa8kzxrMIZf37TH-28" target="0QS4IYa8kzxrMIZf37TH-4">
          <mxGeometry relative="1" as="geometry" />
        </mxCell>
        <mxCell id="0QS4IYa8kzxrMIZf37TH-28" value="reTHUS" style="ellipse;whiteSpace=wrap;html=1;align=center;" vertex="1" parent="0QS4IYa8kzxrMIZf37TH-1">
          <mxGeometry x="650" y="180" width="100" height="40" as="geometry" />
        </mxCell>
        <mxCell id="0QS4IYa8kzxrMIZf37TH-29" style="edgeStyle=none;rounded=0;orthogonalLoop=1;jettySize=auto;html=1;endArrow=none;endFill=0;" edge="1" parent="0QS4IYa8kzxrMIZf37TH-1" source="0QS4IYa8kzxrMIZf37TH-30" target="0QS4IYa8kzxrMIZf37TH-4">
          <mxGeometry relative="1" as="geometry" />
        </mxCell>
        <mxCell id="0QS4IYa8kzxrMIZf37TH-30" value="correo" style="ellipse;whiteSpace=wrap;html=1;align=center;" vertex="1" parent="0QS4IYa8kzxrMIZf37TH-1">
          <mxGeometry x="490" y="40" width="100" height="40" as="geometry" />
        </mxCell>
        <mxCell id="0QS4IYa8kzxrMIZf37TH-31" style="edgeStyle=none;rounded=0;orthogonalLoop=1;jettySize=auto;html=1;endArrow=none;endFill=0;" edge="1" parent="0QS4IYa8kzxrMIZf37TH-1" source="0QS4IYa8kzxrMIZf37TH-32" target="0QS4IYa8kzxrMIZf37TH-4">
          <mxGeometry relative="1" as="geometry" />
        </mxCell>
        <mxCell id="0QS4IYa8kzxrMIZf37TH-32" value="apellidos" style="ellipse;whiteSpace=wrap;html=1;align=center;" vertex="1" parent="0QS4IYa8kzxrMIZf37TH-1">
          <mxGeometry x="380" y="30" width="100" height="40" as="geometry" />
        </mxCell>
        <mxCell id="0QS4IYa8kzxrMIZf37TH-33" style="edgeStyle=none;rounded=0;orthogonalLoop=1;jettySize=auto;html=1;endArrow=none;endFill=0;" edge="1" parent="0QS4IYa8kzxrMIZf37TH-1" source="0QS4IYa8kzxrMIZf37TH-34" target="0QS4IYa8kzxrMIZf37TH-4">
          <mxGeometry relative="1" as="geometry" />
        </mxCell>
        <mxCell id="0QS4IYa8kzxrMIZf37TH-34" value="nombres" style="ellipse;whiteSpace=wrap;html=1;align=center;" vertex="1" parent="0QS4IYa8kzxrMIZf37TH-1">
          <mxGeometry x="260" y="30" width="100" height="40" as="geometry" />
        </mxCell>
        <mxCell id="0QS4IYa8kzxrMIZf37TH-35" style="edgeStyle=none;rounded=0;orthogonalLoop=1;jettySize=auto;html=1;endArrow=none;endFill=0;" edge="1" parent="0QS4IYa8kzxrMIZf37TH-1" source="0QS4IYa8kzxrMIZf37TH-36" target="0QS4IYa8kzxrMIZf37TH-4">
          <mxGeometry relative="1" as="geometry" />
        </mxCell>
        <mxCell id="0QS4IYa8kzxrMIZf37TH-36" value="login" style="ellipse;whiteSpace=wrap;html=1;align=center;" vertex="1" parent="0QS4IYa8kzxrMIZf37TH-1">
          <mxGeometry x="120" y="120" width="100" height="40" as="geometry" />
        </mxCell>
        <mxCell id="0QS4IYa8kzxrMIZf37TH-37" style="edgeStyle=none;rounded=0;orthogonalLoop=1;jettySize=auto;html=1;endArrow=none;endFill=0;" edge="1" parent="0QS4IYa8kzxrMIZf37TH-1" source="0QS4IYa8kzxrMIZf37TH-38" target="0QS4IYa8kzxrMIZf37TH-4">
          <mxGeometry relative="1" as="geometry" />
        </mxCell>
        <mxCell id="0QS4IYa8kzxrMIZf37TH-38" value="password" style="ellipse;whiteSpace=wrap;html=1;align=center;" vertex="1" parent="0QS4IYa8kzxrMIZf37TH-1">
          <mxGeometry x="170" y="70" width="100" height="40" as="geometry" />
        </mxCell>
        <mxCell id="0QS4IYa8kzxrMIZf37TH-39" value="apellidos" style="ellipse;whiteSpace=wrap;html=1;align=center;" vertex="1" parent="0QS4IYa8kzxrMIZf37TH-1">
          <mxGeometry x="1340" y="370" width="100" height="40" as="geometry" />
        </mxCell>
        <mxCell id="0QS4IYa8kzxrMIZf37TH-40" value="nombres" style="ellipse;whiteSpace=wrap;html=1;align=center;" vertex="1" parent="0QS4IYa8kzxrMIZf37TH-1">
          <mxGeometry x="1290" y="410" width="100" height="40" as="geometry" />
        </mxCell>
        <mxCell id="0QS4IYa8kzxrMIZf37TH-41" style="edgeStyle=none;rounded=0;orthogonalLoop=1;jettySize=auto;html=1;endArrow=none;endFill=0;" edge="1" parent="0QS4IYa8kzxrMIZf37TH-1" source="0QS4IYa8kzxrMIZf37TH-42" target="0QS4IYa8kzxrMIZf37TH-4">
          <mxGeometry relative="1" as="geometry" />
        </mxCell>
        <mxCell id="0QS4IYa8kzxrMIZf37TH-42" value="tarjetaProf" style="ellipse;whiteSpace=wrap;html=1;align=center;" vertex="1" parent="0QS4IYa8kzxrMIZf37TH-1">
          <mxGeometry x="590" y="70" width="100" height="40" as="geometry" />
        </mxCell>
        <mxCell id="0QS4IYa8kzxrMIZf37TH-43" style="edgeStyle=none;rounded=0;orthogonalLoop=1;jettySize=auto;html=1;endArrow=none;endFill=0;" edge="1" parent="0QS4IYa8kzxrMIZf37TH-1" source="0QS4IYa8kzxrMIZf37TH-92" target="0QS4IYa8kzxrMIZf37TH-4">
          <mxGeometry relative="1" as="geometry">
            <mxPoint x="661.3268827818442" y="156.38463841037492" as="sourcePoint" />
          </mxGeometry>
        </mxCell>
        <mxCell id="0QS4IYa8kzxrMIZf37TH-44" style="edgeStyle=none;rounded=0;orthogonalLoop=1;jettySize=auto;html=1;endArrow=none;endFill=0;" edge="1" parent="0QS4IYa8kzxrMIZf37TH-1" source="0QS4IYa8kzxrMIZf37TH-45" target="0QS4IYa8kzxrMIZf37TH-4">
          <mxGeometry relative="1" as="geometry" />
        </mxCell>
        <mxCell id="0QS4IYa8kzxrMIZf37TH-45" value="id" style="ellipse;whiteSpace=wrap;html=1;align=center;fontStyle=4;" vertex="1" parent="0QS4IYa8kzxrMIZf37TH-1">
          <mxGeometry x="80" y="180" width="100" height="40" as="geometry" />
        </mxCell>
        <mxCell id="0QS4IYa8kzxrMIZf37TH-46" value="genero" style="ellipse;whiteSpace=wrap;html=1;align=center;" vertex="1" parent="0QS4IYa8kzxrMIZf37TH-1">
          <mxGeometry x="1310" y="150" width="100" height="40" as="geometry" />
        </mxCell>
        <mxCell id="0QS4IYa8kzxrMIZf37TH-47" value="localidad" style="ellipse;whiteSpace=wrap;html=1;align=center;dashed=1;" vertex="1" parent="0QS4IYa8kzxrMIZf37TH-1">
          <mxGeometry x="1660" y="400" width="100" height="40" as="geometry" />
        </mxCell>
        <mxCell id="0QS4IYa8kzxrMIZf37TH-48" style="edgeStyle=none;rounded=0;orthogonalLoop=1;jettySize=auto;html=1;exitX=0.5;exitY=1;exitDx=0;exitDy=0;fontSize=12;endArrow=none;endFill=0;" edge="1" parent="0QS4IYa8kzxrMIZf37TH-1" source="0QS4IYa8kzxrMIZf37TH-49">
          <mxGeometry relative="1" as="geometry">
            <mxPoint x="1180" y="510" as="targetPoint" />
          </mxGeometry>
        </mxCell>
        <mxCell id="0QS4IYa8kzxrMIZf37TH-49" value="tipoDocumento" style="ellipse;align=center;whiteSpace=wrap;html=1;" vertex="1" parent="0QS4IYa8kzxrMIZf37TH-1">
          <mxGeometry x="1110" y="470" width="100" height="40" as="geometry" />
        </mxCell>
        <mxCell id="0QS4IYa8kzxrMIZf37TH-50" value="barrio" style="ellipse;whiteSpace=wrap;html=1;align=center;dashed=1;" vertex="1" parent="0QS4IYa8kzxrMIZf37TH-1">
          <mxGeometry x="1660" y="480" width="100" height="40" as="geometry" />
        </mxCell>
        <mxCell id="0QS4IYa8kzxrMIZf37TH-51" value="sexo" style="ellipse;whiteSpace=wrap;html=1;align=center;" vertex="1" parent="0QS4IYa8kzxrMIZf37TH-1">
          <mxGeometry x="1080" y="70" width="100" height="40" as="geometry" />
        </mxCell>
        <mxCell id="0QS4IYa8kzxrMIZf37TH-52" value="estadoCivil" style="ellipse;whiteSpace=wrap;html=1;align=center;" vertex="1" parent="0QS4IYa8kzxrMIZf37TH-1">
          <mxGeometry x="970" y="60" width="100" height="40" as="geometry" />
        </mxCell>
        <mxCell id="0QS4IYa8kzxrMIZf37TH-53" value="escolaridad" style="ellipse;whiteSpace=wrap;html=1;align=center;" vertex="1" parent="0QS4IYa8kzxrMIZf37TH-1">
          <mxGeometry x="1180" y="80" width="100" height="40" as="geometry" />
        </mxCell>
        <mxCell id="0QS4IYa8kzxrMIZf37TH-54" value="ocupacion" style="ellipse;whiteSpace=wrap;html=1;align=center;" vertex="1" parent="0QS4IYa8kzxrMIZf37TH-1">
          <mxGeometry x="1330" y="200" width="100" height="40" as="geometry" />
        </mxCell>
        <mxCell id="0QS4IYa8kzxrMIZf37TH-55" value="id" style="ellipse;whiteSpace=wrap;html=1;align=center;fontStyle=4;" vertex="1" parent="0QS4IYa8kzxrMIZf37TH-1">
          <mxGeometry x="990" y="470" width="100" height="40" as="geometry" />
        </mxCell>
        <mxCell id="0QS4IYa8kzxrMIZf37TH-56" value="pais" style="ellipse;whiteSpace=wrap;html=1;align=center;dashed=1;" vertex="1" parent="0QS4IYa8kzxrMIZf37TH-1">
          <mxGeometry x="1660" y="340" width="100" height="40" as="geometry" />
        </mxCell>
        <mxCell id="0QS4IYa8kzxrMIZf37TH-57" style="edgeStyle=none;rounded=0;orthogonalLoop=1;jettySize=auto;html=1;entryX=0;entryY=1;entryDx=0;entryDy=0;fontSize=12;endArrow=none;endFill=0;" edge="1" parent="0QS4IYa8kzxrMIZf37TH-1" source="0QS4IYa8kzxrMIZf37TH-61" target="0QS4IYa8kzxrMIZf37TH-56">
          <mxGeometry relative="1" as="geometry" />
        </mxCell>
        <mxCell id="0QS4IYa8kzxrMIZf37TH-58" style="edgeStyle=none;rounded=0;orthogonalLoop=1;jettySize=auto;html=1;entryX=0.063;entryY=0.742;entryDx=0;entryDy=0;entryPerimeter=0;fontSize=12;endArrow=none;endFill=0;" edge="1" parent="0QS4IYa8kzxrMIZf37TH-1" source="0QS4IYa8kzxrMIZf37TH-61" target="0QS4IYa8kzxrMIZf37TH-47">
          <mxGeometry relative="1" as="geometry" />
        </mxCell>
        <mxCell id="0QS4IYa8kzxrMIZf37TH-59" style="edgeStyle=none;rounded=0;orthogonalLoop=1;jettySize=auto;html=1;fontSize=12;endArrow=none;endFill=0;" edge="1" parent="0QS4IYa8kzxrMIZf37TH-1" source="0QS4IYa8kzxrMIZf37TH-61" target="0QS4IYa8kzxrMIZf37TH-50">
          <mxGeometry relative="1" as="geometry" />
        </mxCell>
        <mxCell id="0QS4IYa8kzxrMIZf37TH-60" style="edgeStyle=none;rounded=0;orthogonalLoop=1;jettySize=auto;html=1;fontSize=12;endArrow=none;endFill=0;" edge="1" parent="0QS4IYa8kzxrMIZf37TH-1" source="0QS4IYa8kzxrMIZf37TH-61" target="0QS4IYa8kzxrMIZf37TH-62">
          <mxGeometry relative="1" as="geometry" />
        </mxCell>
        <mxCell id="0QS4IYa8kzxrMIZf37TH-61" value="direccion" style="ellipse;shape=doubleEllipse;margin=3;whiteSpace=wrap;html=1;align=center;fontSize=12;" vertex="1" parent="0QS4IYa8kzxrMIZf37TH-1">
          <mxGeometry x="1350" y="310" width="100" height="40" as="geometry" />
        </mxCell>
        <mxCell id="0QS4IYa8kzxrMIZf37TH-62" value="ciudad" style="ellipse;whiteSpace=wrap;html=1;align=center;fontSize=12;dashed=1;" vertex="1" parent="0QS4IYa8kzxrMIZf37TH-1">
          <mxGeometry x="1630" y="550" width="100" height="40" as="geometry" />
        </mxCell>
        <mxCell id="0QS4IYa8kzxrMIZf37TH-63" style="edgeStyle=none;rounded=0;orthogonalLoop=1;jettySize=auto;html=1;fontSize=12;endArrow=none;endFill=0;" edge="1" parent="0QS4IYa8kzxrMIZf37TH-1" source="0QS4IYa8kzxrMIZf37TH-67" target="0QS4IYa8kzxrMIZf37TH-18">
          <mxGeometry relative="1" as="geometry">
            <mxPoint x="1247.025632435074" y="452.23631373845956" as="sourcePoint" />
          </mxGeometry>
        </mxCell>
        <mxCell id="0QS4IYa8kzxrMIZf37TH-64" value="telefonoFijo" style="ellipse;whiteSpace=wrap;html=1;align=center;fontSize=12;dashed=1;" vertex="1" parent="0QS4IYa8kzxrMIZf37TH-1">
          <mxGeometry x="1270" y="565" width="100" height="40" as="geometry" />
        </mxCell>
        <mxCell id="0QS4IYa8kzxrMIZf37TH-65" style="edgeStyle=none;rounded=0;orthogonalLoop=1;jettySize=auto;html=1;fontSize=12;endArrow=none;endFill=0;" edge="1" parent="0QS4IYa8kzxrMIZf37TH-1" source="0QS4IYa8kzxrMIZf37TH-67" target="0QS4IYa8kzxrMIZf37TH-64">
          <mxGeometry relative="1" as="geometry" />
        </mxCell>
        <mxCell id="0QS4IYa8kzxrMIZf37TH-66" style="edgeStyle=none;rounded=0;orthogonalLoop=1;jettySize=auto;html=1;fontSize=12;endArrow=none;endFill=0;" edge="1" parent="0QS4IYa8kzxrMIZf37TH-1" source="0QS4IYa8kzxrMIZf37TH-67" target="0QS4IYa8kzxrMIZf37TH-68">
          <mxGeometry relative="1" as="geometry" />
        </mxCell>
        <mxCell id="0QS4IYa8kzxrMIZf37TH-67" value="telefono" style="ellipse;shape=doubleEllipse;margin=3;whiteSpace=wrap;html=1;align=center;fontSize=12;" vertex="1" parent="0QS4IYa8kzxrMIZf37TH-1">
          <mxGeometry x="1220" y="450" width="100" height="40" as="geometry" />
        </mxCell>
        <mxCell id="0QS4IYa8kzxrMIZf37TH-68" value="celular" style="ellipse;whiteSpace=wrap;html=1;align=center;fontSize=12;dashed=1;" vertex="1" parent="0QS4IYa8kzxrMIZf37TH-1">
          <mxGeometry x="1380" y="520" width="100" height="40" as="geometry" />
        </mxCell>
        <mxCell id="0QS4IYa8kzxrMIZf37TH-69" style="edgeStyle=none;rounded=0;orthogonalLoop=1;jettySize=auto;html=1;fontSize=12;endArrow=none;endFill=0;" edge="1" parent="0QS4IYa8kzxrMIZf37TH-1" source="0QS4IYa8kzxrMIZf37TH-70" target="0QS4IYa8kzxrMIZf37TH-71">
          <mxGeometry relative="1" as="geometry" />
        </mxCell>
        <mxCell id="0QS4IYa8kzxrMIZf37TH-70" value="eps" style="ellipse;shape=doubleEllipse;margin=3;whiteSpace=wrap;html=1;align=center;fontSize=12;" vertex="1" parent="0QS4IYa8kzxrMIZf37TH-1">
          <mxGeometry x="1270" y="100" width="100" height="40" as="geometry" />
        </mxCell>
        <mxCell id="0QS4IYa8kzxrMIZf37TH-71" value="tipoRegimen" style="ellipse;whiteSpace=wrap;html=1;align=center;fontSize=12;dashed=1;" vertex="1" parent="0QS4IYa8kzxrMIZf37TH-1">
          <mxGeometry x="1410" y="50" width="100" height="40" as="geometry" />
        </mxCell>
        <mxCell id="0QS4IYa8kzxrMIZf37TH-72" value="n" style="edgeLabel;html=1;align=center;verticalAlign=middle;resizable=0;points=[];fontSize=15;" vertex="1" connectable="0" parent="0QS4IYa8kzxrMIZf37TH-1">
          <mxGeometry x="-20.000000000000046" y="310" as="geometry">
            <mxPoint x="100" y="-20" as="offset" />
          </mxGeometry>
        </mxCell>
        <mxCell id="0QS4IYa8kzxrMIZf37TH-73" value="1" style="edgeLabel;html=1;align=center;verticalAlign=middle;resizable=0;points=[];fontSize=15;" vertex="1" connectable="0" parent="0QS4IYa8kzxrMIZf37TH-1">
          <mxGeometry x="-120.00000000000004" y="310" as="geometry">
            <mxPoint x="100" y="-20" as="offset" />
          </mxGeometry>
        </mxCell>
        <mxCell id="0QS4IYa8kzxrMIZf37TH-74" value="n" style="edgeLabel;html=1;align=center;verticalAlign=middle;resizable=0;points=[];fontSize=15;" vertex="1" connectable="0" parent="0QS4IYa8kzxrMIZf37TH-1">
          <mxGeometry x="109.99999999999994" y="310" as="geometry">
            <mxPoint x="100" y="-20" as="offset" />
          </mxGeometry>
        </mxCell>
        <mxCell id="0QS4IYa8kzxrMIZf37TH-75" value="1" style="edgeLabel;html=1;align=center;verticalAlign=middle;resizable=0;points=[];fontSize=15;" vertex="1" connectable="0" parent="0QS4IYa8kzxrMIZf37TH-1">
          <mxGeometry x="249.99999999999994" y="310" as="geometry">
            <mxPoint x="100" y="-20" as="offset" />
          </mxGeometry>
        </mxCell>
        <mxCell id="0QS4IYa8kzxrMIZf37TH-76" value="(n,m)" style="edgeLabel;html=1;align=center;verticalAlign=middle;resizable=0;points=[];fontSize=15;" vertex="1" connectable="0" parent="0QS4IYa8kzxrMIZf37TH-1">
          <mxGeometry x="49.99999999999994" y="360" as="geometry">
            <mxPoint x="100" y="-20" as="offset" />
          </mxGeometry>
        </mxCell>
        <mxCell id="0QS4IYa8kzxrMIZf37TH-77" value="n" style="edgeLabel;html=1;align=center;verticalAlign=middle;resizable=0;points=[];fontSize=15;" vertex="1" connectable="0" parent="0QS4IYa8kzxrMIZf37TH-1">
          <mxGeometry x="557" y="310" as="geometry">
            <mxPoint x="100" y="-20" as="offset" />
          </mxGeometry>
        </mxCell>
        <mxCell id="0QS4IYa8kzxrMIZf37TH-78" value="1" style="edgeLabel;html=1;align=center;verticalAlign=middle;resizable=0;points=[];fontSize=15;" vertex="1" connectable="0" parent="0QS4IYa8kzxrMIZf37TH-1">
          <mxGeometry x="369.99999999999994" y="310" as="geometry">
            <mxPoint x="100" y="-20" as="offset" />
          </mxGeometry>
        </mxCell>
        <mxCell id="0QS4IYa8kzxrMIZf37TH-79" value="n" style="edgeLabel;html=1;align=center;verticalAlign=middle;resizable=0;points=[];fontSize=15;" vertex="1" connectable="0" parent="0QS4IYa8kzxrMIZf37TH-1">
          <mxGeometry x="700" y="310" as="geometry">
            <mxPoint x="100" y="-20" as="offset" />
          </mxGeometry>
        </mxCell>
        <mxCell id="0QS4IYa8kzxrMIZf37TH-80" value="1" style="edgeLabel;html=1;align=center;verticalAlign=middle;resizable=0;points=[];fontSize=15;" vertex="1" connectable="0" parent="0QS4IYa8kzxrMIZf37TH-1">
          <mxGeometry x="890" y="310" as="geometry">
            <mxPoint x="100" y="-20" as="offset" />
          </mxGeometry>
        </mxCell>
        <mxCell id="0QS4IYa8kzxrMIZf37TH-81" value="(n,m)" style="edgeLabel;html=1;align=center;verticalAlign=middle;resizable=0;points=[];fontSize=15;" vertex="1" connectable="0" parent="0QS4IYa8kzxrMIZf37TH-1">
          <mxGeometry x="630" y="360" as="geometry">
            <mxPoint x="100" y="-20" as="offset" />
          </mxGeometry>
        </mxCell>
        <mxCell id="0QS4IYa8kzxrMIZf37TH-82" value="pais" style="ellipse;whiteSpace=wrap;html=1;align=center;dashed=1;" vertex="1" parent="0QS4IYa8kzxrMIZf37TH-1">
          <mxGeometry x="1660" y="340" width="100" height="40" as="geometry" />
        </mxCell>
        <mxCell id="0QS4IYa8kzxrMIZf37TH-83" value="localidad" style="ellipse;whiteSpace=wrap;html=1;align=center;dashed=1;" vertex="1" parent="0QS4IYa8kzxrMIZf37TH-1">
          <mxGeometry x="1660" y="400" width="100" height="40" as="geometry" />
        </mxCell>
        <mxCell id="0QS4IYa8kzxrMIZf37TH-84" value="agno" style="ellipse;whiteSpace=wrap;html=1;align=center;dashed=1;" vertex="1" parent="0QS4IYa8kzxrMIZf37TH-1">
          <mxGeometry x="1620" y="260" width="100" height="40" as="geometry" />
        </mxCell>
        <mxCell id="0QS4IYa8kzxrMIZf37TH-85" value="dia" style="ellipse;whiteSpace=wrap;html=1;align=center;dashed=1;" vertex="1" parent="0QS4IYa8kzxrMIZf37TH-1">
          <mxGeometry x="1630" y="120" width="100" height="40" as="geometry" />
        </mxCell>
        <mxCell id="0QS4IYa8kzxrMIZf37TH-86" value="mes" style="ellipse;whiteSpace=wrap;html=1;align=center;dashed=1;" vertex="1" parent="0QS4IYa8kzxrMIZf37TH-1">
          <mxGeometry x="1630" y="190" width="100" height="40" as="geometry" />
        </mxCell>
        <mxCell id="0QS4IYa8kzxrMIZf37TH-87" style="edgeStyle=none;rounded=0;orthogonalLoop=1;jettySize=auto;html=1;fontSize=12;endArrow=none;endFill=0;" edge="1" parent="0QS4IYa8kzxrMIZf37TH-1" source="0QS4IYa8kzxrMIZf37TH-90" target="0QS4IYa8kzxrMIZf37TH-85">
          <mxGeometry relative="1" as="geometry">
            <mxPoint x="1435.3553390593274" y="255.8578643762694" as="sourcePoint" />
            <mxPoint x="1678.2446609406725" y="220.0021356237313" as="targetPoint" />
          </mxGeometry>
        </mxCell>
        <mxCell id="0QS4IYa8kzxrMIZf37TH-88" style="edgeStyle=none;rounded=0;orthogonalLoop=1;jettySize=auto;html=1;fontSize=12;endArrow=none;endFill=0;" edge="1" parent="0QS4IYa8kzxrMIZf37TH-1" source="0QS4IYa8kzxrMIZf37TH-90" target="0QS4IYa8kzxrMIZf37TH-86">
          <mxGeometry relative="1" as="geometry">
            <mxPoint x="1444.1436194599623" y="260.6077405404335" as="sourcePoint" />
            <mxPoint x="1659.2288118663232" y="155.76392834717035" as="targetPoint" />
          </mxGeometry>
        </mxCell>
        <mxCell id="0QS4IYa8kzxrMIZf37TH-89" style="edgeStyle=none;rounded=0;orthogonalLoop=1;jettySize=auto;html=1;fontSize=12;endArrow=none;endFill=0;" edge="1" parent="0QS4IYa8kzxrMIZf37TH-1" source="0QS4IYa8kzxrMIZf37TH-90" target="0QS4IYa8kzxrMIZf37TH-84">
          <mxGeometry relative="1" as="geometry">
            <mxPoint x="1449.794660323404" y="271.81071492085096" as="sourcePoint" />
            <mxPoint x="1669.2288118663232" y="165.76392834717035" as="targetPoint" />
          </mxGeometry>
        </mxCell>
        <mxCell id="0QS4IYa8kzxrMIZf37TH-90" value="&lt;font style=&quot;font-size: 11px&quot;&gt;fechaNacimiento&lt;/font&gt;" style="ellipse;shape=doubleEllipse;margin=3;whiteSpace=wrap;html=1;align=center;fontSize=15;" vertex="1" parent="0QS4IYa8kzxrMIZf37TH-1">
          <mxGeometry x="1360" y="250" width="90" height="40" as="geometry" />
        </mxCell>
        <mxCell id="0QS4IYa8kzxrMIZf37TH-91" value="telefonoFijo" style="ellipse;whiteSpace=wrap;html=1;align=center;fontSize=12;dashed=1;" vertex="1" parent="0QS4IYa8kzxrMIZf37TH-1">
          <mxGeometry x="810" y="120" width="100" height="40" as="geometry" />
        </mxCell>
        <mxCell id="0QS4IYa8kzxrMIZf37TH-92" value="telefono" style="ellipse;shape=doubleEllipse;margin=3;whiteSpace=wrap;html=1;align=center;fontSize=12;" vertex="1" parent="0QS4IYa8kzxrMIZf37TH-1">
          <mxGeometry x="650" y="120" width="100" height="40" as="geometry" />
        </mxCell>
        <mxCell id="0QS4IYa8kzxrMIZf37TH-93" value="celular" style="ellipse;whiteSpace=wrap;html=1;align=center;fontSize=12;dashed=1;" vertex="1" parent="0QS4IYa8kzxrMIZf37TH-1">
          <mxGeometry x="790" y="40" width="100" height="40" as="geometry" />
        </mxCell>
        <mxCell id="0QS4IYa8kzxrMIZf37TH-94" style="edgeStyle=none;rounded=0;orthogonalLoop=1;jettySize=auto;html=1;fontSize=12;endArrow=none;endFill=0;" edge="1" parent="0QS4IYa8kzxrMIZf37TH-1" source="0QS4IYa8kzxrMIZf37TH-92" target="0QS4IYa8kzxrMIZf37TH-93">
          <mxGeometry relative="1" as="geometry">
            <mxPoint x="790.0001608578693" y="109.50530831097467" as="sourcePoint" />
            <mxPoint x="790" y="80" as="targetPoint" />
          </mxGeometry>
        </mxCell>
        <mxCell id="0QS4IYa8kzxrMIZf37TH-95" style="edgeStyle=none;rounded=0;orthogonalLoop=1;jettySize=auto;html=1;fontSize=12;endArrow=none;endFill=0;" edge="1" parent="0QS4IYa8kzxrMIZf37TH-1" source="0QS4IYa8kzxrMIZf37TH-92" target="0QS4IYa8kzxrMIZf37TH-91">
          <mxGeometry relative="1" as="geometry">
            <mxPoint x="738.8035881111778" y="133.6520175585208" as="sourcePoint" />
            <mxPoint x="821.3268827818442" y="86.38463841037446" as="targetPoint" />
          </mxGeometry>
        </mxCell>
        <mxCell id="0QS4IYa8kzxrMIZf37TH-96" value="Modelo entidad relaciÃ³n" style="text;strokeColor=none;fillColor=none;html=1;fontSize=24;fontStyle=1;verticalAlign=middle;align=center;" vertex="1" parent="0QS4IYa8kzxrMIZf37TH-1">
          <mxGeometry x="520" y="-140" width="400" height="40" as="geometry" />
        </mxCell>
      </root>
    </mxGraphModel>
  </diagram>
</mxfile>
